<svg width="28" height="24" viewBox="0 0 28 24" fill="none" xmlns="http://www.w3.org/2000/svg">
<path d="M27.2803 13.3271C27.6697 19.1017 23.0906 24 17.3029 24L10.6971 24C4.90941 24 0.330328 19.1017 0.71975 13.3272L0.9895 9.32715C1.34353 4.0774 5.70516 1.08277e-06 10.9668 7.94554e-07L17.0332 4.62267e-07C22.2948 1.74055e-07 26.6565 4.0774 27.0105 9.32716L27.2803 13.3271Z" fill="#2675EC"/>
<path d="M11.4379 11.0241L6.21162 9.03348C6.16008 9.01385 6.10182 9.03218 6.0708 9.07777C6.03235 9.13428 6.04926 9.21148 6.10781 9.24675L11.0961 12.2511C12.8826 13.327 15.1174 13.327 16.9039 12.2511L21.8922 9.24675C21.9507 9.21148 21.9677 9.13428 21.9292 9.07777C21.8982 9.03218 21.8399 9.01385 21.7884 9.03348L16.5621 11.0241C14.9119 11.6527 13.0881 11.6527 11.4379 11.0241Z" fill="#FAFAFA"/>
</svg>
